<mxfile host="app.diagrams.net" modified="2024-05-01T10:26:02.067Z" agent="Mozilla/5.0 (Macintosh; Intel Mac OS X 10_15_7) AppleWebKit/537.36 (KHTML, like Gecko) Chrome/124.0.0.0 Safari/537.36" etag="pbpjZ0KGAgjQvhjRbjnl" version="24.2.3" type="device">
  <diagram name="P치gina-1" id="8ON_-h1mqdiGe67dEMft">
    <mxGraphModel dx="984" dy="566" grid="1" gridSize="10" guides="1" tooltips="1" connect="1" arrows="1" fold="1" page="1" pageScale="1" pageWidth="827" pageHeight="1169" math="0" shadow="0">
      <root>
        <mxCell id="0" />
        <mxCell id="1" parent="0" />
        <mxCell id="4syGJnwS9BcY8hSoENSY-1" value="CU gestion ventas&lt;div&gt;&lt;br&gt;&lt;/div&gt;" style="shape=umlFrame;whiteSpace=wrap;html=1;pointerEvents=0;" vertex="1" parent="1">
          <mxGeometry x="150" y="110" width="670" height="570" as="geometry" />
        </mxCell>
        <mxCell id="4syGJnwS9BcY8hSoENSY-2" value="Gesti칩n Ventas" style="text;html=1;align=center;verticalAlign=middle;resizable=0;points=[];autosize=1;strokeColor=none;fillColor=none;" vertex="1" parent="1">
          <mxGeometry x="430" y="120" width="100" height="30" as="geometry" />
        </mxCell>
        <mxCell id="4syGJnwS9BcY8hSoENSY-3" value="Administrativo&lt;div&gt;&lt;br&gt;&lt;/div&gt;" style="shape=umlActor;verticalLabelPosition=bottom;verticalAlign=top;html=1;" vertex="1" parent="1">
          <mxGeometry x="50" y="280" width="30" height="60" as="geometry" />
        </mxCell>
        <mxCell id="4syGJnwS9BcY8hSoENSY-5" value="Modulo toma de Pedidos" style="shape=umlFrame;whiteSpace=wrap;html=1;pointerEvents=0;" vertex="1" parent="1">
          <mxGeometry x="180" y="170" width="610" height="200" as="geometry" />
        </mxCell>
        <mxCell id="4syGJnwS9BcY8hSoENSY-7" value="CU01 - Gestionar Orden" style="ellipse;whiteSpace=wrap;html=1;" vertex="1" parent="1">
          <mxGeometry x="250" y="235" width="140" height="70" as="geometry" />
        </mxCell>
        <mxCell id="4syGJnwS9BcY8hSoENSY-8" value="" style="endArrow=classic;html=1;rounded=0;entryX=0;entryY=0.5;entryDx=0;entryDy=0;" edge="1" parent="1" target="4syGJnwS9BcY8hSoENSY-7">
          <mxGeometry width="50" height="50" relative="1" as="geometry">
            <mxPoint x="80" y="320" as="sourcePoint" />
            <mxPoint x="130" y="270" as="targetPoint" />
          </mxGeometry>
        </mxCell>
        <mxCell id="4syGJnwS9BcY8hSoENSY-9" value="CU02 - Registrar Cliente" style="ellipse;whiteSpace=wrap;html=1;" vertex="1" parent="1">
          <mxGeometry x="530" y="235" width="140" height="70" as="geometry" />
        </mxCell>
        <mxCell id="4syGJnwS9BcY8hSoENSY-10" value="" style="endArrow=block;dashed=1;endFill=0;endSize=12;html=1;rounded=0;" edge="1" parent="1" source="4syGJnwS9BcY8hSoENSY-7">
          <mxGeometry width="160" relative="1" as="geometry">
            <mxPoint x="390" y="270" as="sourcePoint" />
            <mxPoint x="530" y="270" as="targetPoint" />
          </mxGeometry>
        </mxCell>
        <mxCell id="4syGJnwS9BcY8hSoENSY-11" value="Extend" style="text;html=1;align=center;verticalAlign=middle;resizable=0;points=[];autosize=1;strokeColor=none;fillColor=none;" vertex="1" parent="1">
          <mxGeometry x="420" y="248" width="60" height="30" as="geometry" />
        </mxCell>
        <mxCell id="4syGJnwS9BcY8hSoENSY-12" value="Modulo de 칩rdenes" style="shape=umlFrame;whiteSpace=wrap;html=1;pointerEvents=0;" vertex="1" parent="1">
          <mxGeometry x="180" y="390" width="300" height="270" as="geometry" />
        </mxCell>
        <mxCell id="4syGJnwS9BcY8hSoENSY-13" value="CU03 - Generar Factura" style="ellipse;whiteSpace=wrap;html=1;" vertex="1" parent="1">
          <mxGeometry x="260" y="440" width="140" height="70" as="geometry" />
        </mxCell>
        <mxCell id="4syGJnwS9BcY8hSoENSY-14" value="CU04 - Generar Orden de Entrega" style="ellipse;whiteSpace=wrap;html=1;" vertex="1" parent="1">
          <mxGeometry x="260" y="550" width="140" height="70" as="geometry" />
        </mxCell>
        <mxCell id="4syGJnwS9BcY8hSoENSY-15" value="M칩dulo de entregas" style="shape=umlFrame;whiteSpace=wrap;html=1;pointerEvents=0;" vertex="1" parent="1">
          <mxGeometry x="490" y="390" width="300" height="270" as="geometry" />
        </mxCell>
        <mxCell id="4syGJnwS9BcY8hSoENSY-16" value="CU05 - Gestionar Orden de Entrega" style="ellipse;whiteSpace=wrap;html=1;" vertex="1" parent="1">
          <mxGeometry x="570" y="510" width="140" height="70" as="geometry" />
        </mxCell>
        <mxCell id="4syGJnwS9BcY8hSoENSY-17" value="Distribuidor&lt;div&gt;&lt;br&gt;&lt;/div&gt;" style="shape=umlActor;verticalLabelPosition=bottom;verticalAlign=top;html=1;" vertex="1" parent="1">
          <mxGeometry x="930" y="515" width="30" height="60" as="geometry" />
        </mxCell>
        <mxCell id="4syGJnwS9BcY8hSoENSY-18" value="" style="endArrow=classic;html=1;rounded=0;entryX=0;entryY=0.5;entryDx=0;entryDy=0;" edge="1" parent="1" target="4syGJnwS9BcY8hSoENSY-13">
          <mxGeometry width="50" height="50" relative="1" as="geometry">
            <mxPoint x="80" y="320" as="sourcePoint" />
            <mxPoint x="260" y="280" as="targetPoint" />
          </mxGeometry>
        </mxCell>
        <mxCell id="4syGJnwS9BcY8hSoENSY-19" value="" style="endArrow=classic;html=1;rounded=0;entryX=0;entryY=0.5;entryDx=0;entryDy=0;" edge="1" parent="1" target="4syGJnwS9BcY8hSoENSY-14">
          <mxGeometry width="50" height="50" relative="1" as="geometry">
            <mxPoint x="80" y="320" as="sourcePoint" />
            <mxPoint x="250" y="510" as="targetPoint" />
          </mxGeometry>
        </mxCell>
        <mxCell id="4syGJnwS9BcY8hSoENSY-20" value="" style="endArrow=classic;html=1;rounded=0;entryX=0;entryY=0.5;entryDx=0;entryDy=0;exitX=0.433;exitY=0.667;exitDx=0;exitDy=0;exitPerimeter=0;" edge="1" parent="1" source="4syGJnwS9BcY8hSoENSY-17">
          <mxGeometry width="50" height="50" relative="1" as="geometry">
            <mxPoint x="530" y="290" as="sourcePoint" />
            <mxPoint x="710" y="555" as="targetPoint" />
          </mxGeometry>
        </mxCell>
      </root>
    </mxGraphModel>
  </diagram>
</mxfile>
